<?xml version="1.0" encoding="UTF-8" standalone="no"?>
<!-- Created with Inkscape (http://www.inkscape.org/) -->

<svg
   width="100%"
   height="100%"
   viewBox="0 0 1200 400"
   version="1.1"
   id="svg1"
   inkscape:version="1.4.3 (0d15f75042, 2025-12-25)"
   sodipodi:docname="blog-banner.svg"
   xml:space="preserve"
   xmlns:inkscape="http://www.inkscape.org/namespaces/inkscape"
   xmlns:sodipodi="http://sodipodi.sourceforge.net/DTD/sodipodi-0.dtd"
   xmlns:xlink="http://www.w3.org/1999/xlink"
   xmlns="http://www.w3.org/2000/svg"
   xmlns:svg="http://www.w3.org/2000/svg">
  <sodipodi:namedview
   id="namedview1"
   pagecolor="#505050"
   bordercolor="#eeeeee"
   borderopacity="1"
   inkscape:showpageshadow="0"
   inkscape:pageopacity="0"
   inkscape:pagecheckerboard="0"
   inkscape:deskcolor="#505050"
   inkscape:document-units="px"
   inkscape:zoom="1"
   inkscape:cx="444"
   inkscape:cy="143.5"
   inkscape:window-width="2536"
   inkscape:window-height="1362"
   inkscape:window-x="0"
   inkscape:window-y="0"
   inkscape:window-maximized="1"
   inkscape:current-layer="svg1" />
  <defs
   id="defs1">
    <linearGradient
   id="linearGradient5"
   inkscape:collect="always">
      <stop
   style="stop-color:#98971a;stop-opacity:1;"
   offset="0"
   id="stop5" />
      <stop
   style="stop-color:#98971a;stop-opacity:0;"
   offset="1"
   id="stop6" />
    </linearGradient>
    <rect
   x="44.34375"
   y="104.15625"
   width="918.84375"
   height="93.84375"
   id="rect1" />
    <linearGradient
   inkscape:collect="always"
   xlink:href="#linearGradient5"
   id="linearGradient6"
   x1="60.052082"
   y1="149.86456"
   x2="533.38513"
   y2="149.86456"
   gradientUnits="userSpaceOnUse" />
  </defs>
  
  <style
   type="text/css"
   id="style1">
	.linesandangles_een{fill:#111918;}
</style>
  <path
   id="path1-6"
   style="fill:#fbf1c7;fill-opacity:1;stroke-width:11.0041"
   class="linesandangles_een"
   d="M 468.97615,-1 V 2.5134313 31.291989 h 0.01 c -0.005,0.249347 -0.01,0.499376 -0.01,0.750058 v 55.020729 h 44.01659 V 219.11254 c 0,0.94871 0.0401,1.88431 0.11842,2.81272 v 10.61925 h -0.0195 v 19.42256 h 29.66678 c 1.06918,0.10444 2.15033,0.15793 3.24697,0.15793 h 145.06722 v 0.0493 h 22.73861 v 0.0298 h 19.22518 v -31.46298 c 0.026,-0.53969 0.0396,-1.08223 0.0396,-1.62842 V 164.09181 H 689.05909 V 32.042047 c 0,-0.546201 -0.013,-1.08872 -0.0396,-1.628416 V 3.8556413 -0.98026167 h -36.00281 v 0.009864 H 501.98859 c -0.22752,0 -0.45454,0.005289 -0.68097,0.009864 v -0.0394549 z m 21.89974,21.889863 h 22.17607 v 44.391616 h -22.17607 z m 148.56091,0.138168 h 27.59425 v 10.35278 c 0.013,0.219111 0.0195,0.438921 0.0195,0.661236 V 164.09181 H 557.00933 v 46.61218 8.40855 11.04362 H 534.9813 v -19.45217 h 0.0195 V 32.042047 c 0,-0.939097 -0.0314,-1.872647 -0.10856,-2.79298 V 21.037901 H 639.43679 Z M 557.00933,65.054488 V 87.062776 H 645.0425 V 65.054488 Z m 0,44.016592 v 22.00829 h 88.03317 v -22.00829 z m 21.73195,76.62438 h 132.57283 v 44.65809 H 578.74128 Z"
   inkscape:label="icon" />
<path
   d="m 502.02899,375.14492 v -6.12319 h 6.12319 v -24.49275 h -6.12319 v -6.12318 h -30.61594 v 36.73912 z m -42.86231,12.24638 v -85.72463 h 12.24637 v 24.49275 h 36.73913 v 6.12319 h 6.12318 v 6.12319 h 6.12319 v 36.73912 h -6.12319 v 6.12319 h -6.12318 v 6.12319 z m 85.72462,0 v -12.24638 h 12.24637 V 313.91305 H 544.8913 v -12.24638 h 24.49275 v 73.47825 h 12.24637 v 12.24638 z m 104.09419,-12.24638 v -6.12319 h 6.12318 v -24.49275 h -6.12318 v -6.12318 h -24.49276 v 6.12318 h -6.12318 v 24.49275 h 6.12318 v 6.12319 z m -30.61594,12.24638 v -6.12319 h -6.12319 v -6.12319 h -6.12319 V 338.4058 h 6.12319 v -6.12319 h 6.12319 v -6.12319 h 36.73912 v 6.12319 h 6.12319 v 6.12319 h 6.12319 v 36.73912 h -6.12319 v 6.12319 h -6.12319 v 6.12319 z M 728.58693,362.89855 V 338.4058 h -30.61594 v 6.12318 h -6.12319 v 12.24638 h 6.12319 v 6.12319 z m -48.9855,36.73912 V 387.3913 h 42.86231 v -6.12319 h 6.12319 v -6.12319 H 691.8478 v -6.12319 h -6.12318 v -6.12318 h -6.12319 V 338.4058 h 6.12319 v -6.12319 h 6.12318 v -6.12319 h 48.9855 v 61.23188 h -6.12318 v 6.12318 h -6.12319 v 6.12319 z"
   id="text1"
   style="font-size:97.971px;font-family:'VHS Gothic';-inkscape-font-specification:'VHS Gothic';fill:#fbf1c7;stroke-width:5.24844;stroke-linecap:round;stroke-miterlimit:5.3;paint-order:markers fill stroke"
   aria-label="blog" /></svg>
