<?xml version="1.0" encoding="UTF-8" standalone="no"?>
<!-- Created with Inkscape (http://www.inkscape.org/) -->

<svg
   width="100%"
   height="100%"
   viewBox="0 0 1200 400"
   version="1.1"
   id="svg1"
   inkscape:version="1.4.3 (0d15f75042, 2025-12-25)"
   sodipodi:docname="projects-banner.svg"
   xml:space="preserve"
   xmlns:inkscape="http://www.inkscape.org/namespaces/inkscape"
   xmlns:sodipodi="http://sodipodi.sourceforge.net/DTD/sodipodi-0.dtd"
   xmlns:xlink="http://www.w3.org/1999/xlink"
   xmlns="http://www.w3.org/2000/svg"
   xmlns:svg="http://www.w3.org/2000/svg">
  <sodipodi:namedview
   id="namedview1"
   pagecolor="#505050"
   bordercolor="#eeeeee"
   borderopacity="1"
   inkscape:showpageshadow="0"
   inkscape:pageopacity="0"
   inkscape:pagecheckerboard="0"
   inkscape:deskcolor="#505050"
   inkscape:document-units="px"
   inkscape:zoom="1.4142136"
   inkscape:cx="462.80138"
   inkscape:cy="353.19983"
   inkscape:window-width="2536"
   inkscape:window-height="1362"
   inkscape:window-x="0"
   inkscape:window-y="0"
   inkscape:window-maximized="1"
   inkscape:current-layer="svg1" />
  <defs
   id="defs1"><pattern
   inkscape:collect="always"
   xlink:href="#stripes-grid"
   preserveAspectRatio="xMidYMid"
   id="pattern22"
   patternTransform="matrix(0,2.3489219,-2.3489219,0,34.908782,4.9141573)"
   x="0"
   y="0"
   width="3.6" /><pattern
   patternUnits="userSpaceOnUse"
   width="3"
   height="10"
   patternTransform="scale(2)"
   preserveAspectRatio="xMidYMid"
   id="stripes-grid"
   style="fill:#fbf1c7"
   x="0"
   y="0"
   inkscape:label="Stripes grid"
   inkscape:collect="always"
   inkscape:isstock="true"><rect
     style="stroke:none"
     x="0"
     y="0"
     width="2"
     height="10"
     id="rect134-4" /></pattern>
    <linearGradient
   id="linearGradient5"
   inkscape:collect="always">
      <stop
   style="stop-color:#98971a;stop-opacity:1;"
   offset="0"
   id="stop5" />
      <stop
   style="stop-color:#98971a;stop-opacity:0;"
   offset="1"
   id="stop6" />
    </linearGradient>
    <rect
   x="44.34375"
   y="104.15625"
   width="918.84375"
   height="93.84375"
   id="rect1" />
    <linearGradient
   inkscape:collect="always"
   xlink:href="#linearGradient5"
   id="linearGradient6"
   x1="60.052082"
   y1="149.86456"
   x2="533.38513"
   y2="149.86456"
   gradientUnits="userSpaceOnUse" />
  
	

		
	</defs>
  
  <style
   type="text/css"
   id="style1">
	.linesandangles_een{fill:#111918;}
</style>
  
<path
   d="m 355.07251,369.02173 v -6.12318 h 6.12318 v -18.36957 h -6.12318 v -6.12318 h -30.61594 v 30.61593 z m -42.86232,30.61594 v -73.47825 h 48.9855 v 6.12319 h 6.12319 v 6.12319 h 6.12319 v 30.61593 h -6.12319 v 6.12319 h -6.12319 v 6.12319 h -36.73912 v 18.36956 z m 73.47825,-12.24637 v -61.23188 h 12.24638 v 6.12319 h 6.12318 v -6.12319 h 30.61594 v 6.12319 h 6.12319 v 6.12319 h 6.12319 v 12.24637 h -12.24638 v -6.12319 h -6.12319 v -6.12318 h -18.36956 v 6.12318 H 404.058 v 6.12319 h -6.12318 V 387.3913 Z M 502.029,375.14492 v -6.12319 h 6.12319 V 344.52898 H 502.029 v -6.12318 h -24.49275 v 6.12318 h -6.12318 v 24.49275 h 6.12318 v 6.12319 z m -30.61593,12.24638 v -6.12319 h -6.12319 v -6.12319 h -6.12319 V 338.4058 h 6.12319 v -6.12319 h 6.12319 v -6.12319 h 36.73912 v 6.12319 h 6.12319 v 6.12319 h 6.12319 v 36.73912 h -6.12319 v 6.12319 h -6.12319 v 6.12319 z m 73.47825,12.24637 v -6.12319 h -6.12319 v -6.12318 h -6.12318 v -12.24638 h 12.24637 v 6.12319 h 6.12319 v 6.12319 h 12.24637 v -6.12319 h 6.12319 V 338.4058 h -18.36956 v -12.24638 h 30.61594 v 61.23188 h -6.12319 v 6.12318 h -6.12319 v 6.12319 z m 24.49275,-85.72462 v -12.24638 h 12.24638 v 12.24638 z m 85.72462,36.73912 v -6.12319 h -6.12319 v -6.12318 h -24.49275 v 6.12318 h -6.12319 v 6.12319 z m -36.73913,36.73913 v -6.12319 h -6.12318 v -6.12319 h -6.12319 V 338.4058 h 6.12319 v -6.12319 h 6.12318 v -6.12319 h 36.73913 v 6.12319 h 6.12319 v 6.12319 h 6.12318 v 24.49275 h -48.9855 v 6.12318 h 6.12319 v 6.12319 h 42.86231 v 12.24638 z m 73.47824,0 v -6.12319 h -6.12318 v -6.12319 h -6.12319 V 338.4058 h 6.12319 v -6.12319 h 6.12318 v -6.12319 h 36.73913 v 6.12319 h 6.12319 v 6.12319 h 6.12318 v 12.24637 h -12.24637 v -6.12319 h -6.12319 v -6.12318 h -24.49275 v 6.12318 h -6.12319 v 24.49275 h 6.12319 v 6.12319 h 24.49275 v -6.12319 h 6.12319 v -6.12318 h 12.24637 v 12.24637 h -6.12318 v 6.12319 h -6.12319 v 6.12319 z m 91.84784,0 v -6.12319 h -6.12319 V 338.4058 h -18.36956 v -12.24638 h 18.36956 v -24.49275 h 12.24638 v 24.49275 h 18.36956 v 12.24638 h -18.36956 v 36.73912 h 18.36956 v 12.24638 z m 42.86227,0 v -12.24638 h 42.86231 v -12.24637 h -30.61593 v -6.12319 h -6.12319 v -6.12319 h -6.12319 V 338.4058 h 6.12319 v -6.12319 h 6.12319 v -6.12319 h 48.9855 v 12.24638 h -42.86232 v 12.24637 h 30.61594 v 6.12319 h 6.12319 v 6.12319 h 6.12319 v 12.24637 h -6.12319 v 6.12319 h -6.12319 v 6.12319 z"
   id="text1"
   style="font-size:97.971px;font-family:'VHS Gothic';-inkscape-font-specification:'VHS Gothic';fill:#fbf1c7;stroke-width:5.24844;stroke-linecap:round;stroke-miterlimit:5.3;paint-order:markers fill stroke"
   inkscape:label="projects"
   aria-label="projects" /><path
   id="path1"
   style="fill:#fbf1c7;fill-opacity:1;stroke:none;stroke-width:0.537105"
   d="m 694.71289,3.5 c -5.73146,0 -11.11365,2.2244441 -15.1543,6.265625 l -7.54882,7.548828 -2.21289,-2.214844 c -4.64865,-4.648647 -12.18818,-4.648647 -16.8379,0 -4.64972,4.648647 -4.64972,12.18817 0,16.837891 l 2.21485,2.214844 -45.56836,45.566406 c -39.06797,-17.758852 -85.8764,-9.631943 -116.67188,21.16406 -40.57777,40.57777 -40.57777,106.60387 0,147.18164 20.28916,20.28916 46.93921,30.43164 73.58985,30.43164 26.65116,0 53.30264,-10.14248 73.59179,-30.43164 30.79601,-30.79601 38.92293,-77.60282 21.16407,-116.67187 l 45.56836,-45.568361 2.21289,2.214843 c 2.32459,2.324592 5.37205,3.486329 8.41797,3.486329 3.04647,0 6.0939,-1.161737 8.41796,-3.486329 4.64972,-4.648645 4.64972,-12.188169 0,-16.83789 l -2.21289,-2.214844 7.54688,-7.546875 c 8.35682,-8.356822 8.35824,-21.953383 0.002,-30.308594 L 709.86719,9.765625 C 705.82708,5.7255184 700.44541,3.5 694.71289,3.5 Z m 17.69727,42.484375 0.30078,0.300781 -0.30078,0.300782 z m -40.39649,5.005859 17.9961,17.996094 -51.33789,51.337892 c -0.0666,0.0666 -0.12252,0.14076 -0.1875,0.20898 -3.55226,3.4379 -4.66748,8.81738 -2.57618,13.43946 0.1484,0.32798 0.31318,0.6513 0.49414,0.9707 1.32007,2.3302 2.4704,4.7188 3.53516,7.13281 a 80.656853,80.656853 0 0 1 0.96289,2.34375 c 0.35038,0.86831 0.75007,1.7231 1.06836,2.59961 -0.0568,-0.0109 -0.11505,-0.0127 -0.17187,-0.0234 a 80.656853,80.656853 0 0 1 4.92968,25.71094 l 0.0117,0.004 c 0.002,0.10043 -0.0114,0.20035 -0.01,0.30078 a 80.656853,80.656853 0 0 1 0.0137,1.33594 80.656853,80.656853 0 0 1 -0.0918,1.39062 c -0.0459,2.65793 -0.22257,5.30373 -0.5293,7.94141 a 80.656853,80.656853 0 0 1 -0.32421,2.50781 c -0.42848,2.89382 -0.99411,5.76119 -1.73438,8.5957 a 80.656853,80.656853 0 0 1 -0.21289,0.92774 c -0.88789,3.24294 -2.00048,6.42356 -3.29297,9.54492 a 80.656853,80.656853 0 0 1 -0.57617,1.26953 c -1.14141,2.62681 -2.43206,5.18982 -3.85938,7.69727 a 80.656853,80.656853 0 0 1 -1.05078,1.80468 c -1.50234,2.48575 -3.13738,4.89929 -4.92383,7.23243 a 80.656853,80.656853 0 0 1 -0.75,1.02929 c -1.90059,2.40145 -3.91562,4.73392 -6.11914,6.9375 -0.27071,0.27071 -0.54278,0.53867 -0.8164,0.80469 -2.21898,2.15734 -4.55422,4.11752 -6.94922,5.9668 a 80.656853,80.656853 0 0 1 -3.09375,2.2207 c -1.4146,0.98817 -2.84468,1.93586 -4.30664,2.82227 a 80.656853,80.656853 0 0 1 -4.12695,2.38281 c -0.96116,0.50671 -1.94305,0.951 -2.91993,1.41601 a 80.656853,80.656853 0 0 1 -34.97851,8.16602 80.656853,80.656853 0 0 1 -80.65821,-80.6582 80.656853,80.656853 0 0 1 80.65821,-80.656254 80.656853,80.656853 0 0 1 42.07422,11.843754 c 4.34332,1.45052 9.14338,0.24606 12.30468,-3.01758 0.0693,-0.0661 0.14326,-0.1232 0.21094,-0.19141 z"
   sodipodi:insensitive="true"
   inkscape:label="bottle" /><g
   id="g1"
   transform="translate(-1.4142135,5.6568541)"><path
     id="path2-0"
     style="display:inline;fill:url(#pattern22);stroke:none;stroke-width:0.754066;stroke-linecap:round;stroke-miterlimit:5.3;paint-order:markers fill stroke"
     inkscape:label="gradient"
     d="m 504.91704,145.96692 a 65.963364,66.003979 0 0 0 -4.21338,23.21028 65.963364,66.003979 0 0 0 65.96249,66.0047 65.963364,66.003979 0 0 0 65.96434,-66.0047 65.963364,66.003979 0 0 0 -4.21338,-23.21028 z" /><path
     id="path2"
     style="display:inline;fill:#fbf1c7;fill-opacity:1;stroke-width:0.753952;stroke-linecap:round;stroke-miterlimit:5.3;paint-order:markers fill stroke"
     d="m 500.94402,175.5663 a 65.973724,65.973724 0 0 0 65.67183,59.66647 65.973724,65.973724 0 0 0 65.67183,-59.66647 z"
     inkscape:label="liquid"
     sodipodi:insensitive="true" /></g></svg>
